<svg width="10" height="15" viewBox="0 0 10 15" fill="none" xmlns="http://www.w3.org/2000/svg">
<g clip-path="url(#clip0_1_1108)">
<mask id="mask0_1_1108" style="mask-type:alpha" maskUnits="userSpaceOnUse" x="0" y="-2" width="10" height="19">
<path d="M9.5 -1.25H0V16.25H9.5V-1.25Z" fill="white"/>
</mask>
<g mask="url(#mask0_1_1108)">
<path fill-rule="evenodd" clip-rule="evenodd" d="M0 -1.25V16.25H9.5V-1.25H0Z" fill="#2E42A5"/>
<path d="M-1.05762 14.9997L1.03288 17.1711L9.54766 1.1109L10.6503 -2.11602L8.41487 -2.8418L4.94186 4.07906L2.14649 8.74211L-1.05762 14.9997Z" fill="white"/>
<path d="M-0.771545 16.521L0.29347 17.7811L10.2542 -2.41602H8.75886L-0.771545 16.521Z" fill="#F50100"/>
<path d="M10.5575 14.9997L8.46703 17.1711L-0.0477058 1.1109L-1.15039 -2.11602L1.08509 -2.8418L4.55806 4.07906L7.35343 8.74211L10.5575 14.9997Z" fill="white"/>
<path d="M10.4864 16.0916L9.4214 17.3518L5.18003 8.70435L3.92253 7.73819L-1.25629 -2.10498H0.239115L5.41503 7.50455L6.78987 8.66308L10.4864 16.0916Z" fill="#F50100"/>
<mask id="mask1_1_1108" style="mask-type:alpha" maskUnits="userSpaceOnUse" x="-1" y="-3" width="12" height="21">
<path fill-rule="evenodd" clip-rule="evenodd" d="M5.87187 -2.7085H3.62884V4.58317H-0.585205V10.4165H3.62884V17.7082H5.87187V10.4165H10.1023V4.58317H5.87187V-2.7085Z" fill="white"/>
</mask>
<g mask="url(#mask1_1_1108)">
<path fill-rule="evenodd" clip-rule="evenodd" d="M5.87187 -2.7085H3.62884V4.58317H-0.585205V10.4165H3.62884V17.7082H5.87187V10.4165H10.1023V4.58317H5.87187V-2.7085Z" fill="#F50100"/>
<path d="M3.62884 -2.70866V-4.16699H3.03509V-2.70866H3.62884ZM5.87187 -2.70866H6.46562V-4.16699H5.87187V-2.70866ZM3.62884 4.58301V6.04134H4.22262V4.58301H3.62884ZM-0.585204 4.58301V3.12467H-1.17896V4.58301H-0.585204ZM-0.585204 10.4163H-1.17896V11.8747H-0.585204V10.4163ZM3.62884 10.4163H4.22262V8.95801H3.62884V10.4163ZM3.62884 17.708H3.03509V19.1663H3.62884V17.708ZM5.87187 17.708V19.1663H6.46562V17.708H5.87187ZM5.87187 10.4163V8.95801H5.27812V10.4163H5.87187ZM10.1023 10.4163V11.8747H10.696V10.4163H10.1023ZM10.1023 4.58301H10.696V3.12467H10.1023V4.58301ZM5.87187 4.58301H5.27812V6.04134H5.87187V4.58301ZM3.62884 -1.25033H5.87187V-4.16699H3.62884V-1.25033ZM4.22262 4.58301V-2.70866H3.03509V4.58301H4.22262ZM-0.585204 6.04134H3.62884V3.12467H-0.585204V6.04134ZM0.00854671 10.4163V4.58301H-1.17896V10.4163H0.00854671ZM3.62884 8.95801H-0.585204V11.8747H3.62884V8.95801ZM4.22262 17.708V10.4163H3.03509V17.708H4.22262ZM5.87187 16.2497H3.62884V19.1663H5.87187V16.2497ZM5.27812 10.4163V17.708H6.46562V10.4163H5.27812ZM10.1023 8.95801H5.87187V11.8747H10.1023V8.95801ZM9.50851 4.58301V10.4163H10.696V4.58301H9.50851ZM5.87187 6.04134H10.1023V3.12467H5.87187V6.04134ZM5.27812 -2.70866V4.58301H6.46562V-2.70866H5.27812Z" fill="white"/>
</g>
</g>
</g>
<defs>
<clipPath id="clip0_1_1108">
<rect width="9.5" height="15" fill="white"/>
</clipPath>
</defs>
</svg>
